<?xml version="1.0" encoding="UTF-8"?>
<!-- Generator: https://ezgif.com/png-to-svg -->
<svg version="1.1" xmlns="http://www.w3.org/2000/svg" width="948" height="360">
<path d="M0 0 C312.84 0 625.68 0 948 0 C948 118.8 948 237.6 948 360 C635.16 360 322.32 360 0 360 C0 241.2 0 122.4 0 0 Z " fill="#FEFEFE" transform="translate(0,0)"/>
<path d="M0 0 C240.9 0 481.8 0 730 0 C730 118.8 730 237.6 730 360 C417.16 360 104.32 360 -218 360 C-218 277.5 -218 195 -218 110 C-215.79 113.31 -215.26 115.76 -214.38 119.62 C-210.65 134.44 -203.37 147.06 -194 159 C-193.21 160.01 -192.42 161.02 -191.61 162.07 C-187.86 166.76 -183.98 171.17 -179.66 175.34 C-177.93 177.07 -176.34 178.88 -174.75 180.75 C-171.82 184.16 -168.7 187.34 -165.5 190.5 C-162.41 193.55 -159.38 196.62 -156.56 199.94 C-153.55 203.48 -150.31 206.73 -147 210 C-142.45 214.51 -138.13 219.11 -134 224 C-133.16 224.95 -132.32 225.91 -131.45 226.89 C-120.16 239.76 -109.31 253.74 -108.71 271.43 C-107.85 296.01 -100.85 317.41 -83 335 C-65.52 350.66 -43.48 357.98 -20.12 358.24 C-19.4 358.25 -18.67 358.25 -17.92 358.26 C-16.39 358.28 -14.85 358.29 -13.32 358.3 C-11.79 358.31 -10.25 358.33 -8.72 358.36 C5.3 358.63 18.79 357.01 31.38 350.31 C32.03 349.97 32.69 349.63 33.37 349.27 C49.15 340.73 57.23 326.52 62.31 309.77 C65.51 298.81 68.04 287.74 69.67 276.44 C72.65 255.85 77.85 236.94 92 221 C92.54 220.38 93.08 219.75 93.64 219.11 C101.52 210.63 110.99 206.91 122 204 C122.93 203.71 122.93 203.71 123.88 203.42 C142.64 199.72 165.26 204.81 183.78 208.56 C188.53 209.21 193.25 209.16 198.03 209.17 C199.1 209.17 200.17 209.17 201.27 209.18 C203.53 209.18 205.79 209.19 208.05 209.19 C211.46 209.19 214.87 209.21 218.29 209.22 C228.3 209.25 237.95 209.16 247.83 207.46 C253.9 206.58 260 206.67 266.12 206.69 C267.39 206.67 268.66 206.66 269.96 206.64 C291.06 206.63 301.8 214.77 316.19 229.06 C320.04 232.93 323.76 236.87 327.3 241.02 C329.28 243.33 331.33 245.57 333.38 247.81 C336.45 251.21 339.38 254.68 342.25 258.25 C346.91 264.01 351.93 269.38 357 274.79 C359.81 277.79 362.53 280.86 365.22 283.97 C369.39 288.73 373.71 293.36 378 298 C378.57 298.62 379.15 299.24 379.74 299.88 C393.28 314.54 393.28 314.54 408 328 C408.52 328.44 409.05 328.89 409.59 329.35 C418.23 336.62 426.82 343.03 437 348 C438.03 348.53 439.06 349.05 440.12 349.6 C458.32 357.29 483.89 354.87 502 348 C502.79 347.71 503.58 347.41 504.39 347.11 C537.9 334.3 564.95 313.02 588.29 285.95 C591.19 282.64 594.22 279.45 597.25 276.25 C603.56 269.55 609.8 262.8 616 256 C617.83 254 619.67 252 621.5 250 C622.42 249 623.33 248 624.25 247 C673.75 193 673.75 193 675.13 191.5 C676.04 190.5 676.96 189.5 677.87 188.5 C680.19 185.98 682.5 183.45 684.82 180.93 C689.78 175.53 694.72 170.1 699.61 164.64 C701.4 162.67 703.2 160.71 705.02 158.77 C713.79 149.39 720.62 141.31 725 129 C725.32 128.13 725.64 127.26 725.98 126.37 C731.98 107.08 728.17 86.17 719.13 68.64 C713.96 58.99 707.5 50.95 700 43 C699.31 42.24 698.63 41.47 697.92 40.69 C689.21 31.38 678.33 24.4 666 21 C665.22 20.78 664.43 20.55 663.62 20.32 C644.57 15.72 625.55 21.19 608.97 30.79 C593.5 40.26 580.59 53.15 569 67 C568.1 68.05 567.21 69.09 566.31 70.13 C561.29 75.97 556.29 81.82 551.31 87.69 C550.85 88.23 550.4 88.77 549.93 89.32 C547.15 92.61 544.44 95.95 541.75 99.31 C529.41 114.38 515.67 129.18 498 138 C496.59 138.73 496.59 138.73 495.15 139.47 C481.73 145.34 463.83 145.7 450.12 140.44 C442.27 137.1 435.33 132.54 428.55 127.39 C409.52 112.96 390.82 105.57 366.59 108.4 C352.5 111.09 340.67 118.68 329.72 127.61 C319.99 135.5 310.75 142.39 299 147 C297.83 147.54 297.83 147.54 296.64 148.09 C277.16 154.84 250.41 150.03 230.95 145.65 C228.21 145.05 225.47 144.52 222.71 144.02 C201.67 140.12 188.68 125.37 175 110 C174.22 109.15 173.44 108.29 172.63 107.41 C168.85 103.27 165.21 99.06 161.69 94.69 C157.79 89.87 153.66 85.34 149.43 80.83 C146.4 77.57 143.52 74.24 140.75 70.75 C121.95 47.46 99.54 28.13 72 16 C71.39 15.73 70.78 15.46 70.15 15.18 C48.03 5.62 23.88 2.19 0 1 C0 0.67 0 0.34 0 0 Z " fill="#000000" transform="translate(218,0)"/>
<path d="M0 0 C37.62 0 75.24 0 114 0 C114 0.33 114 0.66 114 1 C112.98 1.06 111.96 1.13 110.91 1.2 C79.89 3.21 50.25 5.25 28 30 C25.88 32.74 23.95 35.59 22.06 38.5 C21.29 39.68 21.29 39.68 20.5 40.88 C10.73 55.99 3.51 70.96 1 89 C0.67 89 0.34 89 0 89 C0 59.63 0 30.26 0 0 Z " fill="#020202" transform="translate(0,0)"/>
</svg>
