<svg version="1.2" xmlns="http://www.w3.org/2000/svg" viewBox="0 0 1200 1200" width="1200" height="1200">
	<style>
		.s0 { fill: #000000 } 
		.s1 { fill: #fefefe } 
	</style>
	<path class="s0" d="m0 0c396 0 792 0 1200 0 0 396 0 792 0 1200-396 0-792 0-1200 0 0-396 0-792 0-1200z"/>
	<path class="s1" d="m165.66 163.87c1.93 0 1.93 0 3.9-0.01q5.23 0 10.46 0.01 5.52 0 11.05-0.01 9.28 0 18.56 0.01 10.65 0 21.3 0 9.22-0.01 18.43-0.01 5.48 0.02 10.95 0c39.76-0.03 39.76-0.03 58.44 2.33q1.46 0.18 2.95 0.36c11.31 1.54 22.3 4.41 33.3 7.45q0 0.99 0 2c1.33 0.09 1.33 0.09 2.68 0.19 12.67 1.89 24.92 9.28 36.32 14.81q0 0.99 0 2c1.22 0.31 1.22 0.31 2.46 0.63 4.57 1.77 8.12 4.35 12.04 7.24q1.18 0.88 2.4 1.77c16.55 12.28 32.13 26.37 44.86 42.62 2.77 3.39 5.73 6.56 8.74 9.74 4.66 4.95 9.05 10.03 13.31 15.34 3.15 3.83 6.5 7.46 9.85 11.11q2.94 3.21 5.77 6.49c3.43 3.95 6.97 7.79 10.52 11.64q3.85 4.17 7.55 8.48c8.95 10.26 18.47 20.13 31.5 24.94q0 0.99 0 2 0.92 0.12 1.86 0.24 4.2 0.56 8.39 1.13 1.44 0.2 2.93 0.39 1.4 0.2 2.83 0.39 1.29 0.17 2.6 0.35c2.39 0.5 2.39 0.5 4.29 1.47 5.05 2.48 11.25 2.8 16.78 3.65q1.09 0.18 2.2 0.34c29.73 4.49 60.11 5.43 85.62-12.71q4.41-3.36 8.73-6.82c24.66-19.61 45.51-31.03 77.77-29.43q1.05 0.05 2.13 0.1c18.25 1.1 32.57 11.52 46.87 21.9q0.87 0.63 1.78 1.29 2.2 1.61 4.4 3.21c14.92 10.89 28.51 15.68 47 15.75 1.92 0.03 1.92 0.03 3.87 0.06 10.9 0.05 19.32-2.11 28.95-7.06 1.03-0.53 1.03-0.53 2.08-1.06 19.35-10.07 36.3-27.34 49.69-44.39 2.77-3.48 5.68-6.83 8.6-10.18q6.27-7.18 12.44-14.43 0.67-0.79 1.35-1.6c3.55-4.2 6.94-8.5 10.28-12.86q0.77-0.85 1.56-1.73 0.99 0 2 0c0.34-0.82 0.34-0.82 0.69-1.66 2.69-4.84 6.92-8.67 10.72-12.66q1.56-1.65 3.1-3.31c10.25-11.04 22.09-20.38 35.49-27.37q1.48 0 3 0 0-0.98 0-2c19.22-9.41 43.53-14.2 64.53-7.92 3.67 1.37 7.04 3.03 10.47 4.92q0.9 0.41 1.84 0.83c13.99 6.31 26.64 18.28 36.16 30.17q1.05 1.31 2.14 2.67c9.85 12.68 17.12 25.99 21.14 41.59 0.69 2.81 0.69 2.81 1.79 5.74 1.61 5.62 1.21 11.52 1.18 17.31q0.01 1.75 0.02 3.55c-0.02 10.09-1.46 18.83-5.27 28.14q-0.47 1.23-0.95 2.51-0.48 1.28-0.99 2.61-0.45 1.18-0.9 2.39c-2.53 5.42-6.11 9.71-10.16 14.05q-0.71 0.76-1.44 1.55-1.51 1.62-3.02 3.24-3.85 4.13-7.67 8.27-0.75 0.82-1.53 1.66-5.57 6.05-11.07 12.19-4.57 5.06-9.2 10.08-4.21 4.6-8.39 9.26c-3.88 4.33-7.84 8.57-11.81 12.81-5.27 5.62-5.27 5.62-10.37 11.38-3.9 4.53-8.01 8.85-12.09 13.21q-5.7 6.09-11.35 12.23-1.22 1.32-2.47 2.68-2.99 3.33-5.93 6.71c-3.7 4.24-7.54 8.34-11.41 12.42q-9.73 10.29-19.25 20.75-2.75 3-5.5 6-1.37 1.5-2.75 2.99-2.77 3.04-5.57 6.08-1.4 1.53-2.81 3.05c-0.69 0.76-0.69 0.76-1.4 1.53q-4.14 4.52-8.22 9.1c-6.47 7.19-13.1 14.23-19.75 21.25q-1.32 1.41-2.7 2.86c-19.92 20.62-45.9 36.53-72.3 47.14q-1.26 0.52-2.56 1.06-3.7 1.51-7.44 2.94-1.26 0.51-2.56 1.03c-21.94 8.2-51.27 9.8-73.03 0.12q-1.19-0.57-2.41-1.15c-1.42-0.63-1.42-0.63-2.86-1.27-21.59-10.1-39.79-29.32-56.52-45.98-1.12-1.12-1.12-1.12-2.27-2.26-4.12-4.13-8.05-8.36-11.86-12.78-1.7-1.94-3.5-3.75-5.37-5.52-3.98-3.92-7.41-8.18-10.91-12.53-1.97-2.37-4-4.52-6.21-6.66-3.88-3.76-7.2-7.86-10.58-12.07-3.47-4.19-7.16-8.16-10.86-12.15q-3.97-4.33-7.82-8.79c-2.74-3.13-5.54-6.22-8.34-9.3q-1.97-2.2-3.9-4.43c-4.86-5.65-10-10.98-15.25-16.26q-1.23-1.27-2.52-2.58c-14.28-14.37-26.05-18.69-45.88-18.84q-2.28 0.02-4.56 0.03-3.43 0.01-6.87-0.02c-7.09-0.01-13.63 0.32-20.58 1.91-12.46 2.77-25.57 1.9-38.28 1.82q-4.27-0.01-8.57 0-4.15 0-8.32-0.01-2.92-0.01-5.84-0.01c-6.02-0.05-11.15-0.29-16.83-2.3q-2.17-0.44-4.35-0.78-1.14-0.18-2.31-0.36-1.19-0.18-2.41-0.36-1.23-0.19-2.52-0.39-3.7-0.55-7.41-1.11-1.03-0.15-2.09-0.31c-26.65-4.01-53.74-6.72-76.99 9.45-5.95 4.64-10.72 9.61-14.92 15.86-0.97 1.43-0.97 1.43-1.96 2.89-14.75 22.87-18.83 48.69-22.63 75.19-3.75 25.4-13.1 51.06-34.24 67.06-24.84 17.21-56.85 17.77-85.86 14.55q-1.6-0.18-3.26-0.36c-9.64-1.18-18.39-3.95-27.43-7.39q-1.02-0.38-2.07-0.78c-3.28-1.23-6.47-2.51-9.55-4.16q0-0.98 0-2-1.3-0.37-2.63-0.75c-3.63-1.35-6.23-2.99-9.37-5.25q-0.98-0.7-1.99-1.42c-6.51-4.76-11.71-10.21-16.7-16.52q-0.72-0.88-1.47-1.8c-2.86-3.61-4.66-6.72-5.84-11.26q-0.98 0-2 0-1.84-3.97-3.64-7.96-1.21-2.7-2.48-5.36c-5.88-13.06-6.27-27.83-6.42-41.91-0.45-22.83-17.36-42.07-32.46-57.77-3.15-3.48-6.22-7.01-9.13-10.69-2.13-2.63-4.46-4.92-6.87-7.31-15.1-14.94-15.1-14.94-20.14-20.91-2.67-2.99-5.52-5.78-8.36-8.59-4.09-4.05-8.06-8.11-11.78-12.5q-1.96-2.26-4.01-4.44c-4.84-5.15-9.23-10.39-13.34-16.12q-0.65-0.91-1.33-1.85c-3.04-4.33-3.04-4.33-3.04-6.59q-0.98 0-2 0-3.05-5.48-6-11-0.89-1.66-1.82-3.36c-4.2-8.02-7.13-15.83-9.18-24.64-0.34-1.36-0.34-1.36-0.69-2.74-3.85-18.37-2.26-38.88 4.69-56.26q0.45-1.12 0.91-2.29 1.46-3.61 2.96-7.21 0.49-1.2 0.99-2.43c2.24-5.39 4.91-10.21 8.14-15.07q0.94-1.49 1.92-3.02c8.96-13.69 19.54-27.82 34.08-35.98q1.48 0 3 0 0-0.98 0-2c20.89-9.59 20.89-9.59 30-9q0-0.98 0-2 6.31-0.72 12.62-1.44 1.75-0.2 3.55-0.41 1.75-0.19 3.55-0.4 1.59-0.18 3.21-0.36c10.57-1.07 21.1-1.54 31.73-1.52z"/>
</svg>