<?xml version="1.0" encoding="UTF-8"?>
<!-- Generator: https://ezgif.com/png-to-svg -->
<svg version="1.1" xmlns="http://www.w3.org/2000/svg" width="1200" height="1200">
<path d="M0 0 C396 0 792 0 1200 0 C1200 396 1200 792 1200 1200 C804 1200 408 1200 0 1200 C0 804 0 408 0 0 Z " fill="#000000" transform="translate(0,0)"/>
<path d="M0 0 C1.93 -0 1.93 -0 3.9 -0.01 C7.38 -0.01 10.87 -0.01 14.36 -0 C18.04 -0 21.72 -0 25.41 -0.01 C31.6 -0.01 37.78 -0.01 43.97 -0 C51.07 0 58.17 0 65.27 -0 C71.41 -0.01 77.56 -0.01 83.7 -0.01 C87.35 -0 91 -0 94.65 -0.01 C134.41 -0.04 134.41 -0.04 153.09 2.32 C154.06 2.44 155.04 2.56 156.04 2.68 C167.35 4.22 178.34 7.09 189.34 10.13 C189.34 10.79 189.34 11.45 189.34 12.13 C190.67 12.22 190.67 12.22 192.02 12.32 C204.69 14.21 216.94 21.6 228.34 27.13 C228.34 27.79 228.34 28.45 228.34 29.13 C229.56 29.44 229.56 29.44 230.8 29.76 C235.37 31.53 238.92 34.11 242.84 37 C243.63 37.59 244.42 38.17 245.24 38.77 C261.79 51.05 277.37 65.14 290.1 81.39 C292.87 84.78 295.83 87.95 298.84 91.13 C303.5 96.08 307.89 101.16 312.15 106.47 C315.3 110.3 318.65 113.93 322 117.58 C323.96 119.72 325.88 121.88 327.77 124.07 C331.2 128.02 334.74 131.86 338.29 135.71 C340.85 138.49 343.37 141.31 345.84 144.19 C354.79 154.45 364.31 164.32 377.34 169.13 C377.34 169.79 377.34 170.45 377.34 171.13 C377.95 171.21 378.57 171.29 379.2 171.37 C382 171.74 384.79 172.12 387.59 172.5 C388.55 172.63 389.52 172.76 390.52 172.89 C391.45 173.02 392.39 173.15 393.35 173.28 C394.21 173.39 395.07 173.51 395.95 173.63 C398.34 174.13 398.34 174.13 400.24 175.1 C405.29 177.58 411.49 177.9 417.02 178.75 C417.75 178.87 418.47 178.98 419.22 179.09 C448.95 183.58 479.33 184.52 504.84 166.38 C507.78 164.15 510.68 161.86 513.57 159.56 C538.23 139.95 559.08 128.53 591.34 130.13 C592.04 130.16 592.74 130.2 593.47 130.23 C611.72 131.33 626.04 141.75 640.34 152.13 C640.92 152.55 641.51 152.98 642.12 153.42 C643.59 154.49 645.05 155.56 646.52 156.63 C661.44 167.52 675.03 172.31 693.52 172.38 C695.44 172.41 695.44 172.41 697.39 172.44 C708.29 172.49 716.71 170.33 726.34 165.38 C727.37 164.85 727.37 164.85 728.42 164.32 C747.77 154.25 764.72 136.98 778.11 119.93 C780.88 116.45 783.79 113.1 786.71 109.75 C790.88 104.96 795.04 100.16 799.15 95.32 C799.6 94.79 800.04 94.26 800.5 93.72 C804.05 89.52 807.44 85.22 810.78 80.86 C811.29 80.29 811.81 79.72 812.34 79.13 C813 79.13 813.66 79.13 814.34 79.13 C814.68 78.31 814.68 78.31 815.03 77.47 C817.72 72.63 821.95 68.8 825.75 64.81 C826.79 63.71 827.82 62.61 828.85 61.5 C839.1 50.46 850.94 41.12 864.34 34.13 C865.33 34.13 866.32 34.13 867.34 34.13 C867.34 33.47 867.34 32.81 867.34 32.13 C886.56 22.72 910.87 17.93 931.87 24.21 C935.54 25.58 938.91 27.24 942.34 29.13 C942.94 29.4 943.55 29.68 944.18 29.96 C958.17 36.27 970.82 48.24 980.34 60.13 C981.04 61.01 981.75 61.89 982.48 62.8 C992.33 75.48 999.6 88.79 1003.62 104.39 C1004.31 107.2 1004.31 107.2 1005.41 110.13 C1007.02 115.75 1006.62 121.65 1006.59 127.44 C1006.59 128.61 1006.6 129.79 1006.61 130.99 C1006.59 141.08 1005.15 149.82 1001.34 159.13 C1001.02 159.96 1000.71 160.78 1000.39 161.64 C1000.07 162.5 999.74 163.36 999.4 164.25 C999.1 165.04 998.8 165.83 998.5 166.64 C995.97 172.06 992.39 176.35 988.34 180.69 C987.86 181.2 987.39 181.71 986.9 182.24 C985.89 183.32 984.89 184.4 983.88 185.48 C981.31 188.23 978.76 190.99 976.21 193.75 C975.71 194.3 975.2 194.85 974.68 195.41 C970.96 199.44 967.28 203.51 963.61 207.6 C960.57 210.98 957.49 214.33 954.41 217.68 C951.6 220.75 948.8 223.83 946.02 226.94 C942.14 231.27 938.18 235.51 934.21 239.75 C928.94 245.37 928.94 245.37 923.84 251.13 C919.94 255.66 915.83 259.98 911.75 264.34 C907.95 268.4 904.16 272.47 900.4 276.57 C899.58 277.45 898.77 278.34 897.93 279.25 C895.93 281.47 893.96 283.71 892 285.96 C888.3 290.2 884.46 294.3 880.59 298.38 C874.1 305.24 867.69 312.15 861.34 319.13 C859.5 321.13 857.67 323.13 855.84 325.13 C854.92 326.13 854.01 327.12 853.09 328.12 C851.24 330.15 849.38 332.17 847.52 334.2 C846.58 335.22 845.65 336.24 844.71 337.25 C844.02 338.01 844.02 338.01 843.31 338.78 C840.55 341.79 837.81 344.83 835.09 347.88 C828.62 355.07 821.99 362.11 815.34 369.13 C814.45 370.07 813.56 371.02 812.64 371.99 C792.72 392.61 766.74 408.52 740.34 419.13 C739.49 419.48 738.65 419.83 737.78 420.19 C735.31 421.2 732.83 422.17 730.34 423.13 C729.49 423.47 728.65 423.81 727.78 424.16 C705.84 432.36 676.51 433.96 654.75 424.28 C653.95 423.9 653.16 423.52 652.34 423.13 C650.92 422.5 650.92 422.5 649.48 421.86 C627.89 411.76 609.69 392.54 592.96 375.88 C591.84 374.76 591.84 374.76 590.69 373.62 C586.57 369.49 582.64 365.26 578.83 360.84 C577.13 358.9 575.33 357.09 573.46 355.32 C569.48 351.4 566.05 347.14 562.55 342.79 C560.58 340.42 558.55 338.27 556.34 336.13 C552.46 332.37 549.14 328.27 545.76 324.06 C542.29 319.87 538.6 315.9 534.9 311.91 C532.24 309.02 529.65 306.09 527.08 303.12 C524.34 299.99 521.54 296.9 518.74 293.82 C517.43 292.35 516.12 290.88 514.84 289.39 C509.98 283.74 504.84 278.41 499.59 273.13 C498.76 272.28 497.93 271.43 497.07 270.55 C482.79 256.18 471.02 251.86 451.19 251.71 C449.67 251.72 448.15 251.73 446.63 251.74 C444.34 251.75 442.05 251.74 439.76 251.72 C432.67 251.71 426.13 252.04 419.18 253.63 C406.72 256.4 393.61 255.53 380.9 255.45 C378.05 255.44 375.19 255.44 372.33 255.45 C369.56 255.45 366.79 255.45 364.01 255.44 C362.06 255.43 360.12 255.43 358.17 255.43 C352.15 255.38 347.02 255.14 341.34 253.13 C339.89 252.84 338.44 252.57 336.99 252.35 C336.22 252.23 335.46 252.11 334.68 251.99 C333.88 251.87 333.09 251.75 332.27 251.63 C331.44 251.5 330.61 251.37 329.75 251.24 C327.28 250.87 324.81 250.5 322.34 250.13 C321.65 250.03 320.96 249.92 320.25 249.82 C293.6 245.81 266.51 243.1 243.26 259.27 C237.31 263.91 232.54 268.88 228.34 275.13 C227.37 276.56 227.37 276.56 226.38 278.02 C211.63 300.89 207.55 326.71 203.75 353.21 C200 378.61 190.65 404.27 169.51 420.27 C144.67 437.48 112.66 438.04 83.65 434.82 C82.57 434.7 81.5 434.58 80.39 434.46 C70.75 433.28 62 430.51 52.96 427.07 C52.28 426.81 51.59 426.56 50.89 426.29 C47.61 425.06 44.42 423.78 41.34 422.13 C41.34 421.47 41.34 420.81 41.34 420.13 C40.47 419.88 39.6 419.63 38.71 419.38 C35.08 418.03 32.48 416.39 29.34 414.13 C28.68 413.66 28.03 413.19 27.35 412.71 C20.84 407.95 15.64 402.5 10.65 396.19 C10.16 395.6 9.68 395 9.18 394.39 C6.32 390.78 4.52 387.67 3.34 383.13 C2.68 383.13 2.02 383.13 1.34 383.13 C0.11 380.48 -1.1 377.83 -2.3 375.17 C-3.11 373.37 -3.93 371.58 -4.78 369.81 C-10.66 356.75 -11.05 341.98 -11.2 327.9 C-11.65 305.07 -28.56 285.83 -43.66 270.13 C-46.81 266.65 -49.88 263.12 -52.79 259.44 C-54.92 256.81 -57.25 254.52 -59.66 252.13 C-74.76 237.19 -74.76 237.19 -79.8 231.22 C-82.47 228.23 -85.32 225.44 -88.16 222.63 C-92.25 218.58 -96.22 214.52 -99.94 210.13 C-101.24 208.62 -102.59 207.15 -103.95 205.69 C-108.79 200.54 -113.18 195.3 -117.29 189.57 C-117.73 188.96 -118.17 188.35 -118.62 187.72 C-121.66 183.39 -121.66 183.39 -121.66 181.13 C-122.32 181.13 -122.98 181.13 -123.66 181.13 C-125.7 177.48 -127.69 173.81 -129.66 170.13 C-130.26 169.02 -130.86 167.91 -131.48 166.77 C-135.68 158.75 -138.61 150.94 -140.66 142.13 C-141 140.77 -141 140.77 -141.35 139.39 C-145.2 121.02 -143.61 100.51 -136.66 83.13 C-136.36 82.38 -136.06 81.62 -135.75 80.84 C-134.78 78.43 -133.79 76.03 -132.79 73.63 C-132.46 72.83 -132.14 72.02 -131.8 71.2 C-129.56 65.81 -126.89 60.99 -123.66 56.13 C-123.03 55.13 -122.4 54.14 -121.74 53.11 C-112.78 39.42 -102.2 25.29 -87.66 17.13 C-86.67 17.13 -85.68 17.13 -84.66 17.13 C-84.66 16.47 -84.66 15.81 -84.66 15.13 C-63.77 5.54 -63.77 5.54 -54.66 6.13 C-54.66 5.47 -54.66 4.81 -54.66 4.13 C-50.46 3.65 -46.25 3.17 -42.04 2.69 C-40.87 2.56 -39.7 2.42 -38.49 2.28 C-37.32 2.15 -36.15 2.02 -34.94 1.88 C-33.88 1.76 -32.82 1.64 -31.73 1.52 C-21.16 0.45 -10.63 -0.02 0 0 Z " fill="#FEFEFE" transform="translate(165.66455078125,379.87060546875)"/>
<path d="M0 0 C0.66 0.99 1.32 1.98 2 3 C1.58 3.33 1.17 3.66 0.74 4 C-4.37 8.27 -8.95 12.97 -13.5 17.81 C-14.14 18.48 -14.77 19.15 -15.43 19.84 C-16.02 20.48 -16.61 21.11 -17.22 21.77 C-17.75 22.34 -18.29 22.92 -18.84 23.51 C-20.2 24.95 -20.2 24.95 -20 27 C-21.5 28.48 -21.5 28.48 -23.56 30.19 C-27.59 33.6 -31.32 37.22 -35 41 C-35.66 40.67 -36.32 40.34 -37 40 C-36.36 39.37 -35.72 38.74 -35.06 38.09 C-34.19 37.24 -33.33 36.38 -32.44 35.5 C-31.59 34.66 -30.74 33.83 -29.87 32.97 C-27.06 30.12 -24.46 27.12 -21.84 24.1 C-18.15 19.9 -14.28 15.88 -10.43 11.82 C-6.81 7.99 -3.33 4.09 0 0 Z " fill="#232323" transform="translate(1061,661)"/>
</svg>
